<svg width="30" height="30" viewBox="0 0 30 30" fill="none" xmlns="http://www.w3.org/2000/svg">
<path d="M30 29.4C30 29.7314 29.7314 30 29.4 30H0.600001C0.26863 30 0 29.7314 0 29.4V0.600001C0 0.26863 0.268629 0 0.6 0H29.4C29.7314 0 30 0.268629 30 0.6V29.4ZM4.09082 25.3092C4.09082 25.6406 4.35945 25.9092 4.69082 25.9092H25.3092C25.6406 25.9092 25.9092 25.6406 25.9092 25.3092V4.69082C25.9092 4.35945 25.6406 4.09082 25.3092 4.09082H4.69082C4.35945 4.09082 4.09082 4.35945 4.09082 4.69082V25.3092ZM17.7275 11.6725C17.7275 12.0038 17.9962 12.2725 18.3275 12.2725H22.5816C22.913 12.2725 23.1816 12.5411 23.1816 12.8725V17.1275C23.1816 17.4589 22.913 17.7275 22.5816 17.7275H18.3275C17.9962 17.7275 17.7275 17.9962 17.7275 18.3275V22.5816C17.7275 22.913 17.4589 23.1816 17.1275 23.1816H12.8725C12.5411 23.1816 12.2725 22.913 12.2725 22.5816V18.3275C12.2725 17.9962 12.0038 17.7275 11.6725 17.7275H7.41836C7.08699 17.7275 6.81836 17.4589 6.81836 17.1275V12.8725C6.81836 12.5411 7.08699 12.2725 7.41836 12.2725H11.6725C12.0038 12.2725 12.2725 12.0038 12.2725 11.6725V7.41836C12.2725 7.08699 12.5411 6.81836 12.8725 6.81836H17.1275C17.4589 6.81836 17.7275 7.08699 17.7275 7.41836V11.6725Z" fill="#6B6B6B"/>
</svg>
