<svg width="25" height="25" viewBox="0 0 25 25" fill="none" xmlns="http://www.w3.org/2000/svg">
<g clip-path="url(#clip0_62_81)">
<path d="M16.078 8.52189C16.6301 8.52506 17.0755 8.97512 17.0726 9.52725L17.0052 22.0534C17.0023 22.6056 16.552 23.0508 15.9999 23.048L8 23.005C7.44773 23.0021 7.00243 22.552 7.00539 21.9997L7.07273 9.4735C7.07572 8.92124 7.52583 8.47592 8.07809 8.47889L16.078 8.52189ZM12.1236 0.0268787C14.1944 0.0381248 15.8648 1.67325 15.854 3.67882C15.8431 5.68427 14.1553 7.30049 12.0845 7.28947C10.0137 7.27834 8.34348 5.64402 8.35412 3.6385C8.3649 1.63287 10.0526 0.0157456 12.1236 0.0268787Z" fill="#6B6B6B"/>
</g>
<defs>
<clipPath id="clip0_62_81">
<rect width="24" height="24" fill="white" transform="translate(0.129028) rotate(0.308009)"/>
</clipPath>
</defs>
</svg>
