<svg width="24" height="24" viewBox="0 0 24 24" fill="none" xmlns="http://www.w3.org/2000/svg">
<path d="M23 22.7C23 22.8657 22.8657 23 22.7 23H1.3C1.13431 23 1 22.8657 1 22.7V1.3C1 1.13431 1.13431 1 1.3 1H22.7C22.8657 1 23 1.13431 23 1.3V22.7ZM4 18.5397C4 18.8466 4.40632 18.9555 4.5598 18.6897L8.74019 11.45C8.85566 11.25 9.14433 11.25 9.25979 11.45L14.1338 19.8917C14.1725 19.9587 14.2439 20 14.3213 20C14.488 20 14.5921 19.8196 14.5088 19.6752L11.4704 14.4127C11.4168 14.3199 11.4168 14.2055 11.4704 14.1127L14.7402 8.44996C14.8557 8.24997 15.1443 8.24998 15.2598 8.44997L19.4402 15.6906C19.5937 15.9564 20 15.8475 20 15.5406V4.3C20 4.13432 19.8657 4 19.7 4H4.3C4.13431 4 4 4.13431 4 4.3V18.5397Z" fill="#6B6B6B"/>
</svg>
