<svg width="97" height="97" viewBox="0 0 97 97" fill="none" xmlns="http://www.w3.org/2000/svg">
<path d="M48.5 0C62.2923 0 74.7394 5.75773 83.5703 15H84C83.9227 15.0701 83.8426 15.1373 83.7646 15.207C91.9686 23.8937 97 35.6086 97 48.5C97 61.3911 91.9683 73.1054 83.7646 81.792C83.8427 81.8618 83.9225 81.9297 84 82H83.5703C74.7394 91.2423 62.2923 97 48.5 97C48.3954 97 48.2909 96.9987 48.1865 96.998C48.1244 96.9987 48.0622 97 48 97C47.7515 97 47.5038 96.9948 47.2568 96.9844C33.9617 96.6499 21.9983 90.9626 13.4336 82H13C13.0773 81.9299 13.1565 81.8617 13.2344 81.792C5.03101 73.1054 0 61.3909 0 48.5C0 35.609 5.03086 23.8939 13.2344 15.207C13.1566 15.1375 13.0772 15.07 13 15H13.4326C21.9974 6.0367 33.9614 0.349152 47.2568 0.0146484C47.5038 0.00426025 47.7516 0 48 0C48.0622 0 48.1244 0.000322122 48.1865 0.000976562C48.2909 0.000315677 48.3954 0 48.5 0ZM48.502 73C41.3503 73.0001 34.6886 74.3655 28.8174 76.7646C29.4764 78.1655 30.1805 79.4941 30.9268 80.7422C35.6309 88.6094 41.5459 92.7197 47.3945 92.9854C47.6593 92.9918 47.9246 92.9933 48.1904 92.9951C54.1735 92.9095 60.2578 88.7956 65.0732 80.7422C65.8788 79.3949 66.6345 77.9534 67.3379 76.4287C61.6762 74.2392 55.3115 73.0001 48.502 73ZM71.0039 78.0264C68.6005 83.2555 65.5752 87.6425 62.1113 90.876C67.9559 89.0002 73.2724 85.948 77.7852 82H77.6602C75.608 80.5156 73.381 79.1838 71.0039 78.0264ZM25.1836 78.4336C23.1117 79.4932 21.1592 80.6868 19.3438 82H19.2119C23.3225 85.5968 28.1005 88.4499 33.3369 90.3477C30.1919 87.2585 27.4257 83.2065 25.1836 78.4336ZM4.02832 50C4.40384 61.3367 9.01862 71.5992 16.3389 79.2529C18.5855 77.5743 21.0225 76.0698 23.6191 74.7627C20.8495 67.5866 19.1811 59.1097 19.0156 50H4.02832ZM76.9844 50C76.8221 58.9353 75.2131 67.2614 72.5381 74.3486C75.4504 75.7484 78.1716 77.3926 80.6592 79.251C87.9797 71.5977 92.5962 61.3368 92.9717 50H76.9844ZM23.0156 50C23.1792 58.5773 24.7415 66.4764 27.2656 73.1025C33.673 70.4772 40.8804 69.0001 48.502 69L49.7471 69.0127C56.5673 69.1568 63.0348 70.4827 68.8672 72.7529C71.3136 66.1993 72.8236 58.4268 72.9844 50H23.0156ZM16.3389 17.7471C9.23421 25.1753 4.67714 35.0603 4.07129 46H19.0381C19.3031 37.2697 20.9497 29.1494 23.6182 22.2363C21.0221 20.9292 18.5852 19.4255 16.3389 17.7471ZM27.2637 23.8984C24.8383 30.266 23.3023 37.8094 23.041 46H72.959C72.7024 37.9567 71.2164 30.5376 68.8662 24.2432C62.6786 26.6513 55.7774 27.9999 48.498 28L47.2529 27.9873C40.0919 27.836 33.3201 26.3806 27.2637 23.8984ZM80.6582 17.7471C78.1713 19.605 75.4527 21.252 72.541 22.6514C75.1161 29.4735 76.7021 37.4439 76.9619 46H92.9287C92.3228 35.0594 87.764 25.1751 80.6582 17.7471ZM47.3945 4.01367C41.5459 4.27931 35.6309 8.39056 30.9268 16.2578C30.1805 17.5059 29.4764 18.8345 28.8174 20.2354C34.6878 22.6337 41.3477 23.9999 48.498 24C55.3092 23.9999 61.6752 22.7598 67.3379 20.5693C66.6347 19.0453 65.8786 17.6046 65.0732 16.2578C60.2578 8.20443 54.1735 4.0895 48.1904 4.00391C47.9246 4.00572 47.6593 4.00722 47.3945 4.01367ZM62.1113 6.12305C65.5749 9.35617 68.6013 13.7422 71.0049 18.9707C73.3801 17.8139 75.6056 16.4833 77.6562 15H77.7871C73.2739 11.0514 67.9565 7.99899 62.1113 6.12305ZM33.3369 6.65137C28.1004 8.54913 23.3227 11.403 19.2119 15H19.3398C21.1561 16.3138 23.1097 17.5075 25.1826 18.5674C27.4251 13.7937 30.1915 9.74086 33.3369 6.65137Z" fill="#666363"/>
</svg>
