<svg width="24" height="24" viewBox="0 0 24 24" fill="none" xmlns="http://www.w3.org/2000/svg">
<path d="M16.5 3C18.0667 3 19.3748 3.5252 20.4248 4.5752C21.4748 5.6252 22 6.93333 22 8.5C22 9.26667 21.8706 10.0167 21.6123 10.75C21.354 11.4832 20.8999 12.2872 20.25 13.1621C19.6 14.0371 18.725 15.025 17.625 16.125C16.525 17.225 15.1334 18.5332 13.4502 20.0498L12 21.3496L10.5498 20.0498C8.86656 18.5332 7.47496 17.225 6.375 16.125C5.275 15.025 4.4 14.0371 3.75 13.1621C3.10012 12.2872 2.64601 11.4832 2.3877 10.75C2.12936 10.0167 2 9.26667 2 8.5C2 6.93333 2.5252 5.6252 3.5752 4.5752C4.6252 3.5252 5.93333 3 7.5 3C8.36652 3 9.19139 3.18326 9.97461 3.5498C10.7579 3.91643 11.4334 4.43305 12 5.09961C12.5666 4.43305 13.2421 3.91643 14.0254 3.5498C14.8086 3.18326 15.6335 3 16.5 3Z" fill="#6B6B6B"/>
</svg>
