<svg width="24" height="24" viewBox="0 0 24 24" fill="none" xmlns="http://www.w3.org/2000/svg">
<path d="M4.7002 19C4.86573 19.0001 4.99989 19.1343 5 19.2998V22.7002C4.99989 22.8657 4.86573 22.9999 4.7002 23H1.2998C1.13427 22.9999 1.00011 22.8657 1 22.7002V19.2998C1.00011 19.1343 1.13427 19.0001 1.2998 19H4.7002ZM22.7002 19C22.8657 19.0001 22.9999 19.1343 23 19.2998V22.7002C22.9999 22.8657 22.8657 22.9999 22.7002 23H7.2998C7.13427 22.9999 7.00011 22.8657 7 22.7002V19.2998C7.00011 19.1343 7.13427 19.0001 7.2998 19H22.7002ZM4.7002 10C4.86573 10.0001 4.99989 10.1343 5 10.2998V13.7002C4.99989 13.8657 4.86573 13.9999 4.7002 14H1.2998C1.13427 13.9999 1.00011 13.8657 1 13.7002V10.2998C1.00011 10.1343 1.13427 10.0001 1.2998 10H4.7002ZM22.7002 10C22.8657 10.0001 22.9999 10.1343 23 10.2998V13.7002C22.9999 13.8657 22.8657 13.9999 22.7002 14H7.2998C7.13427 13.9999 7.00011 13.8657 7 13.7002V10.2998C7.00011 10.1343 7.13427 10.0001 7.2998 10H22.7002ZM4.7002 1C4.86573 1.00011 4.99989 1.13427 5 1.2998V4.7002C4.99989 4.86573 4.86573 4.99989 4.7002 5H1.2998C1.13427 4.99989 1.00011 4.86573 1 4.7002V1.2998C1.00011 1.13427 1.13427 1.00011 1.2998 1H4.7002ZM22.7002 1C22.8657 1.00011 22.9999 1.13427 23 1.2998V4.7002C22.9999 4.86573 22.8657 4.99989 22.7002 5H7.2998C7.13427 4.99989 7.00011 4.86573 7 4.7002V1.2998C7.00011 1.13427 7.13427 1.00011 7.2998 1H22.7002Z" fill="#6B6B6B"/>
</svg>
