<svg width="24" height="22" viewBox="0 0 24 22" fill="none" xmlns="http://www.w3.org/2000/svg">
<path d="M22.7965 8.68244C23.2379 9.03739 22.9869 9.75 22.4205 9.75H20.6C20.2686 9.75 20 10.0186 20 10.35V21.4C20 21.7314 19.7314 22 19.4 22H4.6C4.26863 22 4 21.7314 4 21.4V10.35C4 10.0186 3.73137 9.75 3.4 9.75H1.57949C1.01309 9.75 0.7621 9.03739 1.20348 8.68244L11.624 0.302383C11.8436 0.125802 12.1564 0.125802 12.376 0.302383L22.7965 8.68244ZM7 18.4C7 18.7314 7.26863 19 7.6 19H16.4C16.7314 19 17 18.7314 17 18.4V10.6C17 10.2686 16.7314 10 16.4 10H7.6C7.26863 10 7 10.2686 7 10.6V18.4Z" fill="#6B6B6B"/>
</svg>
