<svg width="30" height="30" viewBox="0 0 30 30" fill="none" xmlns="http://www.w3.org/2000/svg">
<path d="M29.7002 24.5459C29.8658 24.546 30 24.6801 30 24.8457V29.7002C29.9999 29.8657 29.8657 29.9999 29.7002 30H0.299805C0.134274 29.9999 0.000105721 29.8657 0 29.7002V24.8457C0 24.6801 0.134209 24.546 0.299805 24.5459H29.7002ZM29.7002 12.2725C29.8656 12.2726 29.9998 12.4069 30 12.5723V17.4277C29.9998 17.5931 29.8656 17.7274 29.7002 17.7275H0.299805C0.134363 17.7274 0.000249235 17.5931 0 17.4277V12.5723C0.000249176 12.4069 0.134363 12.2726 0.299805 12.2725H29.7002ZM29.7002 0C29.8657 0.000105309 29.9999 0.134274 30 0.299805V5.1543C30 5.31992 29.8658 5.454 29.7002 5.4541H0.299805C0.134209 5.454 0 5.31992 0 5.1543V0.299805C0.000105662 0.134274 0.134274 0.000105475 0.299805 0H29.7002Z" fill="#6B6B6B"/>
</svg>
