<svg width="24" height="24" viewBox="0 0 24 24" fill="none" xmlns="http://www.w3.org/2000/svg">
<path d="M12 4C5.92487 4 1 7.80558 1 12.5C1 12.6739 1.01012 12.8463 1.02344 13.0176L1 13V21H11L10.9512 20.96C11.2964 20.9852 11.6462 21 12 21C18.0751 21 23 17.1944 23 12.5C23 7.80558 18.0751 4 12 4ZM12 6C16.9706 6 21 8.91011 21 12.5C20.9999 16.0898 16.9705 19 12 19C11.7108 19 11.4248 18.989 11.1426 18.9697L11.1816 19H3V12.8818L3.01855 12.8945C3.00772 12.764 3 12.6325 3 12.5C3 8.91011 7.02944 6 12 6ZM5 16H18V14H5V16ZM5 12H18V10H5V12Z" fill="#6B6B6B"/>
</svg>
