<svg width="22" height="22" viewBox="0 0 22 22" fill="none" xmlns="http://www.w3.org/2000/svg">
<path d="M11 3C17.0751 3 22 6.80558 22 11.5C22 11.6739 21.9899 11.8463 21.9766 12.0176L22 12V20H12L12.0488 19.96C11.7036 19.9852 11.3538 20 11 20C4.92487 20 0 16.1944 0 11.5C0 6.80558 4.92487 3 11 3ZM11 5C6.02944 5 2 7.91011 2 11.5C2.00007 15.0898 6.02948 18 11 18C11.2892 18 11.5752 17.989 11.8574 17.9697L11.8184 18H20V11.8818L19.9814 11.8945C19.9923 11.764 20 11.6325 20 11.5C20 7.91011 15.9706 5 11 5ZM18 15H5V13H18V15ZM18 11H5V9H18V11Z" fill="#6B6B6B"/>
</svg>
