<svg width="22" height="22" viewBox="0 0 22 22" fill="none" xmlns="http://www.w3.org/2000/svg">
<path d="M14 10C14.5523 10 15 10.4477 15 11V21C15 21.5523 14.5523 22 14 22H8C7.44772 22 7 21.5523 7 21V11C7 10.4477 7.44772 10 8 10H14ZM7 7C7.55228 7 8 7.44772 8 8V9H7C6.44772 9 6 9.44772 6 10V19H1C0.447715 19 1.61065e-08 18.5523 0 18V8C0 7.44772 0.447715 7 1 7H7ZM21 7C21.5523 7 22 7.44772 22 8V18C22 18.5523 21.5523 19 21 19H16V10C16 9.44772 15.5523 9 15 9H14V8C14 7.44772 14.4477 7 15 7H21ZM11 3C12.6569 3 14 4.34315 14 6C14 7.65685 12.6569 9 11 9C9.34315 9 8 7.65685 8 6C8 4.34315 9.34315 3 11 3ZM4 0C5.65685 0 7 1.34315 7 3C7 4.65685 5.65685 6 4 6C2.34315 6 1 4.65685 1 3C1 1.34315 2.34315 0 4 0ZM18 0C19.6569 0 21 1.34315 21 3C21 4.65685 19.6569 6 18 6C16.3431 6 15 4.65685 15 3C15 1.34315 16.3431 0 18 0Z" fill="#6B6B6B"/>
</svg>
