<svg width="24" height="24" viewBox="0 0 24 24" fill="none" xmlns="http://www.w3.org/2000/svg">
<path d="M23 22.7C23 22.8657 22.8657 23 22.7 23H1.3C1.13431 23 1 22.8657 1 22.7V1.3C1 1.13431 1.13431 1 1.3 1H22.7C22.8657 1 23 1.13431 23 1.3V22.7ZM3.3 18C3.13431 18 3 18.1343 3 18.3V20.7C3 20.8657 3.13431 21 3.3 21H10.7C10.8657 21 11 20.8657 11 20.7V18.3C11 18.1343 10.8657 18 10.7 18H3.3ZM13.3 18C13.1343 18 13 18.1343 13 18.3V20.7C13 20.8657 13.1343 21 13.3 21H20.7C20.8657 21 21 20.8657 21 20.7V18.3C21 18.1343 20.8657 18 20.7 18H13.3ZM3 15.7C3 15.8657 3.13431 16 3.3 16H10.7C10.8657 16 11 15.8657 11 15.7V13.3C11 13.1343 10.8657 13 10.7 13H3.3C3.13431 13 3 13.1343 3 13.3V15.7ZM13 15.7C13 15.8657 13.1343 16 13.3 16H20.7C20.8657 16 21 15.8657 21 15.7V13.3C21 13.1343 20.8657 13 20.7 13H13.3C13.1343 13 13 13.1343 13 13.3V15.7ZM3 10.7C3 10.8657 3.13431 11 3.3 11H10.7C10.8657 11 11 10.8657 11 10.7V8.3C11 8.13431 10.8657 8 10.7 8H3.3C3.13431 8 3 8.13431 3 8.3V10.7ZM13 10.7C13 10.8657 13.1343 11 13.3 11H20.7C20.8657 11 21 10.8657 21 10.7V8.3C21 8.13431 20.8657 8 20.7 8H13.3C13.1343 8 13 8.13431 13 8.3V10.7ZM3 5.7C3 5.86569 3.13431 6 3.3 6H10.7C10.8657 6 11 5.86569 11 5.7V3.3C11 3.13431 10.8657 3 10.7 3H3.3C3.13431 3 3 3.13431 3 3.3V5.7ZM13 5.7C13 5.86569 13.1343 6 13.3 6H20.7C20.8657 6 21 5.86569 21 5.7V3.3C21 3.13431 20.8657 3 20.7 3H13.3C13.1343 3 13 3.13431 13 3.3V5.7Z" fill="#6B6B6B"/>
</svg>
