<svg width="24" height="24" viewBox="0 0 24 24" fill="none" xmlns="http://www.w3.org/2000/svg">
<path d="M23 22.7C23 22.8657 22.8657 23 22.7 23H1.3C1.13431 23 1 22.8657 1 22.7V21.3C1 21.1343 1.13431 21 1.3 21H22.7C22.8657 21 23 21.1343 23 21.3V22.7ZM23 18.7C23 18.8657 22.8657 19 22.7 19H1.3C1.13431 19 1 18.8657 1 18.7V17.3C1 17.1343 1.13431 17 1.3 17H22.7C22.8657 17 23 17.1343 23 17.3V18.7ZM23 14.7C23 14.8657 22.8657 15 22.7 15H1.3C1.13431 15 1 14.8657 1 14.7V13.3C1 13.1343 1.13431 13 1.3 13H22.7C22.8657 13 23 13.1343 23 13.3V14.7ZM10.7002 1C10.8657 1.00011 10.9999 1.13427 11 1.2998V4.7002C10.9999 4.86573 10.8657 4.99989 10.7002 5H9.2998C9.13427 4.99989 9.00011 4.86573 9 4.7002V3.2998C8.99989 3.13427 8.86573 3.00011 8.7002 3H7.2998C7.13427 3.00011 7.00011 3.13427 7 3.2998V10.7002C6.99989 10.8657 6.86573 10.9999 6.7002 11H5.2998C5.13427 10.9999 5.00011 10.8657 5 10.7002V3.2998C4.99989 3.13427 4.86573 3.00011 4.7002 3H3.2998C3.13427 3.00011 3.00011 3.13427 3 3.2998V4.7002C2.99989 4.86573 2.86573 4.99989 2.7002 5H1.2998C1.13427 4.99989 1.00011 4.86573 1 4.7002V1.2998C1.00011 1.13427 1.13427 1.00011 1.2998 1H10.7002ZM23 10.7C23 10.8657 22.8657 11 22.7 11H12.3C12.1343 11 12 10.8657 12 10.7V9.3C12 9.13431 12.1343 9 12.3 9H22.7C22.8657 9 23 9.13431 23 9.3V10.7ZM23 6.7C23 6.86569 22.8657 7 22.7 7H13.3C13.1343 7 13 6.86569 13 6.7V5.3C13 5.13431 13.1343 5 13.3 5H22.7C22.8657 5 23 5.13431 23 5.3V6.7ZM23 2.7C23 2.86569 22.8657 3 22.7 3H13.3C13.1343 3 13 2.86569 13 2.7V1.3C13 1.13431 13.1343 1 13.3 1H22.7C22.8657 1 23 1.13431 23 1.3V2.7Z" fill="#6B6B6B"/>
</svg>
